<svg width="24" height="24" viewBox="0 0 24 24" fill="none" xmlns="http://www.w3.org/2000/svg">
<g filter="url(#filter0_i_13_852)">
<path fill-rule="evenodd" clip-rule="evenodd" d="M19.804 0.364014C17.5027 0.364014 15.6371 2.22958 15.6371 4.53087C15.6371 6.67645 17.2588 8.44328 19.3433 8.67255V9.3491C19.3433 10.5275 18.388 11.4828 17.2096 11.4828H7.57353C6.39514 11.4828 5.43987 10.5275 5.43987 9.3491V8.67258C7.52438 8.44332 9.14603 6.67649 9.14603 4.5309C9.14603 2.22961 7.28047 0.364047 4.97917 0.364047C2.67788 0.364047 0.812317 2.22961 0.812317 4.5309C0.812317 6.41435 2.06193 8.00594 3.77729 8.52181V9.3491C3.77729 11.4457 5.47693 13.1453 7.57353 13.1453H11.5603V15.272C9.65729 15.6572 8.22469 17.3393 8.22469 19.3559C8.22469 21.6572 10.0903 23.5228 12.3916 23.5228C14.6928 23.5228 16.5584 21.6572 16.5584 19.3559C16.5584 17.3393 15.1258 15.6573 13.2229 15.272V13.1453H17.2096C19.3062 13.1453 21.0059 11.4457 21.0059 9.3491V8.52178C22.7212 8.00591 23.9709 6.41432 23.9709 4.53087C23.9709 2.22958 22.1053 0.364014 19.804 0.364014ZM17.2997 4.53087C17.2997 3.14779 18.4209 2.02659 19.804 2.02659C21.1871 2.02659 22.3083 3.14779 22.3083 4.53087C22.3083 5.91395 21.1871 7.03515 19.804 7.03515C18.4209 7.03515 17.2997 5.91395 17.2997 4.53087ZM2.47489 4.5309C2.47489 3.14783 3.5961 2.02662 4.97917 2.02662C6.36225 2.02662 7.48346 3.14783 7.48346 4.5309C7.48346 5.91398 6.36225 7.03519 4.97917 7.03519C3.5961 7.03519 2.47489 5.91398 2.47489 4.5309ZM12.3916 16.8516C11.0085 16.8516 9.88727 17.9728 9.88727 19.3559C9.88727 20.739 11.0085 21.8602 12.3916 21.8602C13.7746 21.8602 14.8958 20.739 14.8958 19.3559C14.8958 17.9728 13.7746 16.8516 12.3916 16.8516Z" fill="#93D290"/>
</g>
<defs>
<filter id="filter0_i_13_852" x="0.812317" y="0.364014" width="23.1585" height="24.1588" filterUnits="userSpaceOnUse" color-interpolation-filters="sRGB">
<feFlood flood-opacity="0" result="BackgroundImageFix"/>
<feBlend mode="normal" in="SourceGraphic" in2="BackgroundImageFix" result="shape"/>
<feColorMatrix in="SourceAlpha" type="matrix" values="0 0 0 0 0 0 0 0 0 0 0 0 0 0 0 0 0 0 127 0" result="hardAlpha"/>
<feOffset dy="1"/>
<feGaussianBlur stdDeviation="1"/>
<feComposite in2="hardAlpha" operator="arithmetic" k2="-1" k3="1"/>
<feColorMatrix type="matrix" values="0 0 0 0 1 0 0 0 0 1 0 0 0 0 1 0 0 0 0.55 0"/>
<feBlend mode="normal" in2="shape" result="effect1_innerShadow_13_852"/>
</filter>
</defs>
</svg>
