<svg width="25" height="22" viewBox="0 0 25 22" fill="none" xmlns="http://www.w3.org/2000/svg">
<g filter="url(#filter0_i_13_856)">
<path d="M6.60291 7.15061C6.76896 4.20405 9.23305 1.85459 12.2601 1.85459C15.2871 1.85459 17.7512 4.20405 17.9173 7.15062C17.9408 7.56754 18.2699 7.90233 18.6864 7.9329C20.8312 8.09037 22.5126 9.86557 22.5126 12.0196C22.5126 13.2941 22.0456 13.9103 21.6676 14.2228C21.4643 14.391 21.2604 14.492 21.1098 14.5501C21.0351 14.5789 20.976 14.5962 20.9402 14.6055C20.9295 14.6083 20.9209 14.6103 20.9149 14.6117C20.9108 14.6126 20.9079 14.6133 20.906 14.6136L20.9052 14.6138C20.4577 14.6933 20.1562 15.1182 20.2306 15.5679C20.3055 16.0208 20.7334 16.3273 21.1863 16.2524L21.0609 15.4939C21.1863 16.2524 21.1874 16.2523 21.1874 16.2523L21.1885 16.2521L21.1909 16.2517L21.1963 16.2507L21.2098 16.2483C21.22 16.2464 21.2324 16.2439 21.2469 16.2409C21.2759 16.2348 21.3134 16.2263 21.3583 16.2146C21.4479 16.1914 21.5679 16.1553 21.7082 16.1012C21.9876 15.9934 22.3571 15.81 22.727 15.5042C23.4956 14.8688 24.1752 13.7786 24.1752 12.0196C24.1752 9.21737 22.1638 6.89035 19.5054 6.36841C18.9703 2.86678 15.9257 0.192017 12.2601 0.192017C8.59447 0.192017 5.54988 2.86678 5.01476 6.3684C2.3564 6.89035 0.344971 9.21737 0.344971 12.0196C0.344971 13.7786 1.02459 14.8688 1.79318 15.5042C2.16311 15.81 2.53252 15.9934 2.81192 16.1012C2.95226 16.1553 3.07228 16.1914 3.16187 16.2146C3.20676 16.2263 3.24431 16.2348 3.2733 16.2409C3.2878 16.2439 3.3002 16.2464 3.31033 16.2483L3.32383 16.2507L3.32928 16.2517L3.33168 16.2521L3.33279 16.2523C3.33279 16.2523 3.33384 16.2524 3.46652 15.4501L3.33385 16.2524C3.78681 16.3273 4.21472 16.0208 4.28961 15.5679C4.36396 15.1182 4.06249 14.6933 3.61499 14.6138L3.61412 14.6136C3.60952 14.6127 3.5978 14.6101 3.57998 14.6055C3.54416 14.5962 3.48503 14.5789 3.41038 14.5501C3.2598 14.492 3.05591 14.391 2.85255 14.2228C2.47453 13.9103 2.00754 13.2941 2.00754 12.0196C2.00754 9.86558 3.68896 8.09037 5.83381 7.9329C6.25027 7.90232 6.57942 7.56754 6.60291 7.15061Z" fill="#3FB3E5"/>
<path d="M12.3917 10.6718C12.6274 10.6718 12.852 10.7718 13.0096 10.947L16.3452 14.6532C16.6523 14.9944 16.6247 15.5201 16.2834 15.8272C15.9422 16.1343 15.4165 16.1066 15.1094 15.7654L13.2228 13.6692V21.1391C13.2228 21.5982 12.8506 21.9703 12.3915 21.9703C11.9324 21.9703 11.5602 21.5982 11.5602 21.1391V13.6696L9.67406 15.7654C9.36694 16.1066 8.84132 16.1343 8.50007 15.8272C8.15882 15.5201 8.13116 14.9944 8.43828 14.6532L11.7739 10.947C11.9315 10.7718 12.1561 10.6718 12.3917 10.6718Z" fill="#3FB3E5"/>
</g>
<defs>
<filter id="filter0_i_13_856" x="0.344971" y="0.192017" width="23.8302" height="22.7783" filterUnits="userSpaceOnUse" color-interpolation-filters="sRGB">
<feFlood flood-opacity="0" result="BackgroundImageFix"/>
<feBlend mode="normal" in="SourceGraphic" in2="BackgroundImageFix" result="shape"/>
<feColorMatrix in="SourceAlpha" type="matrix" values="0 0 0 0 0 0 0 0 0 0 0 0 0 0 0 0 0 0 127 0" result="hardAlpha"/>
<feOffset dy="1"/>
<feGaussianBlur stdDeviation="1"/>
<feComposite in2="hardAlpha" operator="arithmetic" k2="-1" k3="1"/>
<feColorMatrix type="matrix" values="0 0 0 0 1 0 0 0 0 1 0 0 0 0 1 0 0 0 0.55 0"/>
<feBlend mode="normal" in2="shape" result="effect1_innerShadow_13_856"/>
</filter>
</defs>
</svg>
