<svg width="202" height="48" viewBox="0 0 202 48" fill="none" xmlns="http://www.w3.org/2000/svg">
<path d="M58.0684 38.9895C58.0398 38.9914 58.011 38.9872 57.9841 38.9772C57.9572 38.9671 57.9328 38.9515 57.9123 38.9314C57.8919 38.9113 57.8759 38.887 57.8655 38.8603C57.855 38.8335 57.8504 38.8049 57.8518 38.7762V8.98332C57.8504 8.95465 57.855 8.926 57.8655 8.89925C57.8759 8.8725 57.8919 8.84825 57.9123 8.82811C57.9328 8.80796 57.9572 8.79236 57.9841 8.78234C58.011 8.77232 58.0398 8.7681 58.0684 8.76996H70.6768C75.6556 8.76996 79.131 12.5878 79.131 17.6115C79.131 22.6351 75.6556 26.453 70.6768 26.453H61.0718C61.0434 26.4516 61.0151 26.4562 60.9885 26.4664C60.962 26.4767 60.9379 26.4923 60.9178 26.5124C60.8978 26.5325 60.8821 26.5566 60.8719 26.5831C60.8616 26.6096 60.857 26.638 60.8584 26.6664V38.773C60.8603 38.8015 60.8561 38.8301 60.8461 38.8568C60.836 38.8836 60.8204 38.9079 60.8002 38.9281C60.78 38.9483 60.7557 38.9639 60.7289 38.974C60.7022 38.984 60.6736 38.9882 60.6451 38.9863L58.0684 38.9895ZM61.0718 11.3464C61.0431 11.345 61.0145 11.3497 60.9877 11.3601C60.961 11.3705 60.9367 11.3865 60.9166 11.4069C60.8964 11.4274 60.8808 11.4519 60.8708 11.4788C60.8608 11.5057 60.8566 11.5344 60.8584 11.563V23.6664C60.8565 23.6949 60.8607 23.7235 60.8708 23.7502C60.8808 23.777 60.8965 23.8013 60.9167 23.8215C60.9369 23.8417 60.9612 23.8574 60.9879 23.8674C61.0147 23.8774 61.0433 23.8817 61.0718 23.8798H70.2598C73.8645 23.8798 76.1405 20.7052 76.1405 17.6147C76.1405 14.5242 73.8774 11.3464 70.2598 11.3464H61.0718Z" fill="black"></path>
<path d="M90.1795 16.8242C96.0602 16.8242 99.7523 19.4104 99.7523 24.5505V33.5213C99.7523 35.7551 100.312 36.3984 102.112 36.3984H102.584C102.613 36.3966 102.642 36.4008 102.669 36.4108C102.695 36.4208 102.72 36.4364 102.74 36.4566C102.761 36.4767 102.777 36.501 102.787 36.5277C102.798 36.5545 102.802 36.5831 102.801 36.6118V38.7583C102.802 38.787 102.798 38.8156 102.787 38.8424C102.777 38.8691 102.761 38.8934 102.74 38.9135C102.72 38.9337 102.695 38.9493 102.669 38.9593C102.642 38.9693 102.613 38.9735 102.584 38.9717H102.112C99.1509 38.9717 97.9483 38.157 97.2209 36.3855C97.213 36.344 97.1932 36.3056 97.1638 36.2752C97.1344 36.2448 97.0968 36.2237 97.0556 36.2144C97.0143 36.2051 96.9713 36.2081 96.9317 36.223C96.8921 36.2379 96.8578 36.264 96.8329 36.2982C96.1863 36.9448 94.1302 39.2594 88.8055 39.3887C83.1415 39.3887 80.0508 36.6861 80.0508 32.7778C80.0508 28.8694 83.1415 26.3414 89.2355 26.3414H94.6022C95.9762 26.3414 96.7489 26.3414 96.7489 24.5375C96.7489 22.3037 96.2316 19.3878 90.1795 19.3878C85.8862 19.3878 83.9141 21.1884 83.9141 24.5795C83.9155 24.6084 83.9109 24.6371 83.9005 24.664C83.8901 24.691 83.8742 24.7154 83.8538 24.7358C83.8334 24.7562 83.8089 24.7721 83.782 24.7825C83.7551 24.7929 83.7263 24.7975 83.6975 24.7961H81.1112C81.0825 24.7976 81.0539 24.7929 81.0271 24.7825C81.0004 24.7721 80.9761 24.7561 80.956 24.7357C80.9358 24.7152 80.9202 24.6907 80.9102 24.6638C80.9002 24.6369 80.8959 24.6082 80.8978 24.5795C80.9075 19.3555 85.0295 16.8242 90.1795 16.8242ZM96.7489 29.1442C96.7502 29.1154 96.7456 29.0866 96.7352 29.0597C96.7248 29.0328 96.7089 29.0083 96.6885 28.9879C96.6681 28.9675 96.6437 28.9516 96.6168 28.9412C96.5898 28.9308 96.5611 28.9262 96.5322 28.9276H89.4198C83.9691 28.9276 83.0671 30.9028 83.0671 32.7907C83.0671 34.7659 84.6997 36.8251 88.8185 36.8251C94.4438 36.8251 96.6745 33.1786 96.7618 30.1722L96.7489 29.1442Z" fill="black"></path>
<path d="M125.252 37.4871V38.1337C125.252 44.2759 121.389 47.9644 115.078 47.9644C109.669 47.9644 105.932 45.0873 105.505 41.7414C105.503 41.7128 105.508 41.6841 105.518 41.6571C105.528 41.6302 105.543 41.6058 105.563 41.5853C105.584 41.5649 105.608 41.5489 105.635 41.5385C105.661 41.528 105.69 41.5234 105.719 41.5248H108.208C108.274 41.5258 108.339 41.547 108.392 41.5858C108.446 41.6245 108.487 41.6788 108.509 41.7414C108.939 43.4127 111.169 45.3879 115.078 45.3879C120.742 45.3879 122.161 41.8675 122.245 38.1337V36.4591C122.237 36.4186 122.216 36.3815 122.187 36.3522C122.158 36.3228 122.121 36.3025 122.08 36.2937C122.04 36.2848 121.997 36.2878 121.958 36.3022C121.92 36.3167 121.886 36.3419 121.861 36.3751C120.959 37.4483 118.812 39.4656 114.606 39.4656C108.551 39.4656 104.387 34.8719 104.387 28.1769C104.387 21.4819 108.337 16.8882 114.606 16.8882C115.965 16.8647 117.313 17.1278 118.563 17.6603C119.813 18.1928 120.936 18.9828 121.861 19.9787C122.032 20.15 122.203 20.0627 122.245 19.8914L122.675 17.5315C122.717 17.4022 122.759 17.3149 122.889 17.3149H125.035C125.064 17.3135 125.093 17.3181 125.12 17.3285C125.147 17.3389 125.171 17.3548 125.192 17.3752C125.212 17.3956 125.228 17.4201 125.238 17.447C125.249 17.4739 125.253 17.5027 125.252 17.5315V37.4871ZM115.033 36.8859C119.843 36.8859 122.245 33.3298 122.245 28.1575C122.245 22.9851 119.843 19.4291 115.033 19.4291C110.222 19.4291 107.393 22.9851 107.393 28.1575C107.393 33.3298 110.225 36.8859 115.033 36.8859Z" fill="black"></path>
<path d="M139.845 39.4029C133.108 39.4029 129.199 34.8092 129.199 28.1142C129.199 21.4192 133.108 16.8223 139.845 16.8223C146.583 16.8223 150.491 21.416 150.491 28.1142C150.491 34.8124 146.544 39.4029 139.845 39.4029ZM139.845 19.3988C135.08 19.3988 132.206 22.9548 132.206 28.1271C132.206 33.2995 135.08 36.8555 139.845 36.8555C144.611 36.8555 147.488 33.2995 147.488 28.1271C147.488 22.9548 144.611 19.3988 139.845 19.3988Z" fill="black"></path>
<path d="M174.569 38.7749C174.571 38.8034 174.567 38.832 174.557 38.8588C174.547 38.8855 174.531 38.9098 174.511 38.93C174.491 38.9502 174.466 38.9659 174.44 38.9759C174.413 38.986 174.384 38.9902 174.356 38.9883H172.209C172.08 38.9883 172.038 38.9042 171.996 38.7749L171.566 36.415C171.559 36.3713 171.539 36.3309 171.507 36.3001C171.476 36.2693 171.435 36.2498 171.391 36.2446C171.347 36.2394 171.303 36.2489 171.265 36.2715C171.227 36.2942 171.197 36.3287 171.181 36.3698C170.88 36.7997 168.776 39.4182 163.923 39.4182C157.228 39.4182 153.707 34.8245 153.707 28.1295C153.707 21.4346 157.444 16.8408 163.923 16.8408C168.688 16.8408 170.793 19.427 171.181 19.9734C171.307 20.1867 171.566 20.1027 171.566 19.9313V8.98529C171.564 8.95678 171.568 8.92819 171.578 8.90144C171.588 8.87469 171.604 8.8504 171.624 8.83019C171.644 8.80998 171.669 8.79433 171.695 8.78428C171.722 8.77424 171.751 8.77002 171.779 8.77193H174.365C174.394 8.77002 174.423 8.77424 174.449 8.78428C174.476 8.79433 174.5 8.80998 174.521 8.83019C174.541 8.8504 174.556 8.87469 174.566 8.90144C174.577 8.92819 174.581 8.95678 174.579 8.98529L174.569 38.7749ZM164.353 36.8353C169.16 36.8353 171.566 33.2793 171.566 28.1069C171.566 22.9345 169.16 19.3785 164.353 19.3785C159.546 19.3785 156.714 22.9345 156.714 28.1069C156.714 33.2793 159.546 36.8418 164.353 36.8418V36.8353Z" fill="black"></path>
<path d="M189.212 16.7441C195.093 16.7441 198.781 19.3303 198.781 24.4704V33.4412C198.781 35.6718 199.341 36.3151 201.145 36.3151H201.617C201.645 36.3137 201.674 36.3183 201.701 36.3288C201.728 36.3392 201.752 36.3551 201.772 36.3756C201.792 36.396 201.808 36.4205 201.818 36.4474C201.828 36.4743 201.832 36.5031 201.83 36.5317V38.6685C201.832 38.6971 201.828 38.7256 201.818 38.7524C201.808 38.7791 201.792 38.8034 201.772 38.8236C201.752 38.8438 201.727 38.8595 201.701 38.8696C201.674 38.8796 201.645 38.8838 201.617 38.8819H201.135C198.174 38.8819 196.971 38.0673 196.24 36.2957C196.233 36.2543 196.213 36.2161 196.184 36.1858C196.155 36.1555 196.117 36.1346 196.076 36.1256C196.035 36.1166 195.992 36.12 195.953 36.1353C195.914 36.1506 195.88 36.1772 195.856 36.2117C195.209 36.8582 193.15 39.1728 187.828 39.3022C182.161 39.3022 179.07 36.5964 179.07 32.6912C179.07 28.7861 182.161 26.2516 188.255 26.2516H193.622C194.996 26.2516 195.768 26.2516 195.768 24.451C195.768 22.2172 195.254 19.298 189.202 19.298C184.909 19.298 182.934 21.1019 182.934 24.493C182.936 24.5215 182.931 24.5501 182.921 24.5769C182.911 24.6036 182.896 24.6279 182.875 24.6481C182.855 24.6683 182.831 24.684 182.804 24.694C182.777 24.7041 182.749 24.7083 182.72 24.7064H180.134C180.105 24.7082 180.077 24.704 180.05 24.694C180.023 24.684 179.998 24.6684 179.978 24.6482C179.957 24.6281 179.941 24.6038 179.931 24.5771C179.921 24.5503 179.916 24.5217 179.917 24.493C179.937 19.2721 184.059 16.7441 189.212 16.7441ZM195.778 29.0609C195.78 29.0323 195.776 29.0038 195.766 28.977C195.756 28.9503 195.74 28.926 195.72 28.9058C195.7 28.8855 195.675 28.8699 195.649 28.8598C195.622 28.8498 195.593 28.8456 195.565 28.8475H188.452C182.998 28.8475 182.096 30.8227 182.096 32.7106C182.096 34.6858 183.713 36.7451 187.851 36.7451C193.473 36.7451 195.707 33.0985 195.791 30.0921L195.778 29.0609Z" fill="black"></path>
<path d="M14.5703 0.00195312L28.2869 13.7177C24.649 17.3553 19.715 19.3989 14.5703 19.3989C9.4256 19.3989 4.4916 17.3553 0.853738 13.7177L14.5703 0.00195312Z" fill="black"></path>
<path d="M48.8555 13.7148L35.1389 27.4306C31.501 23.7929 29.4573 18.8592 29.4573 13.7148C29.4573 8.57044 31.501 3.63674 35.1389 -0.000899574L48.8555 13.7148Z" fill="black"></path>
<path d="M35.1406 47.9941L21.424 34.2784C25.0619 30.6408 29.9959 28.5972 35.1406 28.5972C40.2853 28.5972 45.2193 30.6408 48.8572 34.2784L35.1406 47.9941Z" fill="black"></path>
<path d="M0.863281 34.2832L14.5799 20.5675C18.2177 24.2051 20.2614 29.1388 20.2614 34.2832C20.2614 39.4276 18.2177 44.3613 14.5799 47.9989L0.863281 34.2832Z" fill="black"></path>
</svg>